<svg width="512" height="512" viewBox="0 0 512 512" fill="none" xmlns="http://www.w3.org/2000/svg">
<mask id="mask0_669_30" style="mask-type:alpha" maskUnits="userSpaceOnUse" x="0" y="10" width="512" height="493">
<path d="M500.118 278.95L482.728 273.32C482.318 273.19 482.148 273.05 481.958 272.56C481.018 270.04 479.968 267.52 478.838 265.03C478.658 264.63 478.658 264.44 478.878 264.01L487.178 247.7C490.558 241.09 489.308 233.1 484.038 227.78L465.188 208.93C459.898 203.69 451.898 202.44 445.298 205.82L429.028 214.12C428.558 214.36 428.358 214.34 427.928 214.14C425.468 213.02 422.948 211.97 420.438 211.03C419.938 210.84 419.798 210.66 419.678 210.3L414.038 192.87C411.748 185.78 405.188 181.02 397.728 181.02H371.108C363.528 181.02 357.128 185.67 354.808 192.86L349.148 210.26C349.018 210.66 348.878 210.85 348.448 211.02C345.938 211.95 343.398 212.99 340.858 214.15C340.468 214.33 340.268 214.35 339.858 214.14L323.538 205.81C316.928 202.43 308.938 203.68 303.618 208.95L284.768 227.8C279.528 233.09 278.278 241.09 281.658 247.69L289.978 263.99C290.188 264.4 290.188 264.61 289.978 265.06C288.858 267.52 287.808 270.04 286.848 272.62C286.718 272.98 286.578 273.16 286.148 273.31L268.698 278.96C265.338 280.06 262.508 282.12 260.448 284.77C260.228 284.56 260.008 284.35 259.788 284.12L244.348 268.01V257.49C249.478 254.17 254.318 250.32 258.788 245.95C274.458 230.65 284.028 210.74 286.158 189.29C300.678 185.62 311.218 172.59 311.218 156.94C311.218 148.66 308.178 141.09 303.168 135.26V101.19C303.168 50.91 262.258 10 211.978 10H159.788C139.948 10 123.478 24.66 120.648 43.71C101.108 46.09 85.9179 62.79 85.9179 82.96V135.25C80.9079 141.09 77.8679 148.67 77.8679 156.95C77.8679 172.6 88.4079 185.63 102.928 189.3C105.058 210.74 114.628 230.66 130.298 245.96C134.768 250.33 139.608 254.18 144.738 257.5V268.01L129.288 284.13C126.128 287.44 122.738 289.43 118.298 290.59L52.6179 307.88C37.6379 311.82 26.8879 323.25 23.8779 338.47L0.757889 455.77C-1.54211 467.48 1.44789 479.44 8.97789 488.59C16.4979 497.73 27.6579 502.98 39.5879 502.98H349.528C361.458 502.98 372.618 497.74 380.138 488.59C387.658 479.44 390.658 467.48 388.358 455.76L384.488 436.13H397.748C405.188 436.13 411.748 431.37 414.058 424.28L419.688 406.89C419.848 406.41 420.028 406.27 420.448 406.12C422.968 405.18 425.488 404.13 427.978 403C428.388 402.81 428.598 402.81 428.978 403.01L445.298 411.34C451.908 414.72 459.898 413.47 465.218 408.2L484.068 389.35C489.308 384.06 490.558 376.06 487.178 369.46L478.878 353.19C478.638 352.72 478.658 352.52 478.858 352.09C480.008 349.58 481.048 347.04 481.958 344.6C482.148 344.1 482.348 343.96 482.708 343.84L500.128 338.17C507.328 335.84 511.978 329.44 511.978 321.86V295.24C511.978 287.79 507.208 281.24 500.118 278.95ZM125.478 59.41H128.228C132.638 59.41 136.218 55.83 136.218 51.42V49.55C136.218 36.56 146.798 25.99 159.798 25.99H211.988C253.458 25.99 287.188 59.73 287.188 101.19V124.93C284.088 124.02 280.808 123.55 277.408 123.59V119.73C277.408 110.48 273.948 102.17 267.408 95.71C260.818 89.19 252.488 85.79 243.288 85.92C207.178 86.23 176.978 82.98 150.968 75.96C150.488 75.83 149.998 75.75 149.498 75.71C141.298 75.07 129.938 77.96 122.338 95.29C118.518 103.99 116.358 114.57 114.678 123.77C110.386 123.32 106.048 123.714 101.908 124.93V82.97C101.918 69.98 112.488 59.41 125.478 59.41ZM118.498 182.12C118.388 177.88 114.978 174.46 110.738 174.33C101.278 174.06 93.8679 166.42 93.8679 156.95C93.8679 147.37 101.658 139.57 111.248 139.57C113.548 139.57 115.828 140.03 118.018 140.92C120.248 141.84 122.768 141.7 124.888 140.55C127.008 139.4 128.488 137.35 128.918 134.98C129.188 133.53 129.458 132.02 129.728 130.46C133.228 110.78 137.498 91.61 147.638 91.61H147.658C174.898 98.86 206.248 102.23 243.468 101.89C248.428 101.83 252.598 103.52 256.178 107.06C259.708 110.55 261.428 114.69 261.428 119.72V133.01C261.428 135.61 262.688 138.04 264.808 139.54C266.928 141.04 269.648 141.41 272.088 140.54C273.928 139.89 275.878 139.55 277.858 139.55C287.438 139.55 295.238 147.34 295.238 156.93C295.238 166.4 287.828 174.03 278.368 174.31C274.128 174.43 270.718 177.85 270.608 182.1C269.558 222.96 235.438 256.2 194.548 256.2C153.658 256.2 119.548 222.98 118.498 182.12ZM194.558 272.21C206.298 272.21 217.728 269.98 228.378 265.75V274.93C228.378 293.58 213.208 308.75 194.558 308.75C175.908 308.75 160.738 293.58 160.738 274.93V265.75C171.501 270.025 182.977 272.217 194.558 272.21ZM97.1079 486.99L80.8079 351.11C80.7279 350.48 80.8679 350.2 81.1879 349.85C81.5779 349.41 81.8579 349.29 82.4279 349.29H306.688C307.258 349.29 307.538 349.42 307.928 349.85C308.248 350.2 308.378 350.48 308.308 351.11L292.008 486.99H97.1079ZM367.788 478.43C363.318 483.87 356.658 486.99 349.528 486.99H308.108L324.188 353.01C324.798 347.91 323.258 343 319.858 339.19C316.408 335.33 311.858 333.29 306.698 333.29H82.4179C77.2579 333.29 72.7079 335.33 69.2579 339.19C65.8579 343 64.3179 347.91 64.9279 353.01L80.9979 486.99H39.5879C32.4579 486.99 25.7979 483.87 21.3279 478.43C16.8479 472.99 15.0779 465.85 16.4479 458.85L39.5779 341.56C41.3979 332.36 47.6379 325.71 56.7079 323.33L122.368 306.04C129.628 304.14 135.688 300.58 140.858 295.16L146.788 288.97C152.868 309.61 171.978 324.72 194.558 324.72C217.138 324.72 236.248 309.61 242.328 288.97L248.248 295.14C253.438 300.57 259.488 304.13 266.738 306.02L332.418 323.31C341.478 325.69 347.718 332.34 349.538 341.53L350.478 346.3L350.538 346.62L366.908 429.64L366.938 429.79L372.668 458.83C374.038 465.85 372.258 472.99 367.788 478.43ZM347.568 308.58C347.568 288.25 364.098 271.7 384.418 271.7C404.748 271.7 421.298 288.24 421.298 308.58C421.298 328.9 404.758 345.43 384.418 345.43C377.678 345.43 371.228 343.65 365.568 340.26L365.218 338.46C363.038 327.44 356.778 318.42 347.798 312.78C347.646 311.385 347.569 309.983 347.568 308.58ZM495.988 321.87C495.988 322.46 495.748 322.79 495.188 322.97L477.728 328.65C472.698 330.31 468.888 333.96 466.978 339C466.178 341.16 465.308 343.27 464.328 345.41C462.098 350.24 462.178 355.54 464.608 360.39L472.948 376.72C473.108 377.04 473.268 377.53 472.738 378.06L453.948 396.85C453.388 397.4 452.898 397.25 452.578 397.08L436.218 388.73C431.438 386.31 426.128 386.22 421.298 388.45C419.201 389.411 417.069 390.294 414.908 391.1C409.878 392.93 406.188 396.75 404.488 401.9L398.848 419.32C398.668 419.86 398.308 420.12 397.748 420.12H381.328L369.318 359.2C374.168 360.64 379.238 361.39 384.428 361.39C413.578 361.39 437.298 337.69 437.298 308.55C437.298 279.4 413.578 255.68 384.428 255.68C355.958 255.68 332.688 278.33 331.638 306.57L278.458 292.57L291.118 288.47C296.228 286.79 300.048 283.09 301.858 278.12C302.668 275.96 303.568 273.79 304.518 271.7C306.768 266.84 306.668 261.53 304.238 256.72L295.898 240.39C295.738 240.07 295.578 239.58 296.108 239.05L314.898 220.26C315.458 219.71 315.948 219.86 316.268 220.03L332.658 228.39C337.448 230.78 342.748 230.87 347.548 228.65C349.685 227.675 351.856 226.777 354.058 225.96C359.028 224.07 362.688 220.27 364.358 215.2L370.028 197.76C370.208 197.21 370.538 196.97 371.128 196.97H397.748C398.318 196.97 398.668 197.22 398.848 197.76L404.508 215.24C406.168 220.29 409.848 224.1 414.858 225.98C417.018 226.79 419.188 227.69 421.278 228.64C426.108 230.88 431.408 230.79 436.258 228.36L452.588 220.02C452.908 219.86 453.398 219.7 453.928 220.23L472.718 239.02C473.268 239.58 473.118 240.07 472.948 240.4L464.668 256.68C462.198 261.47 462.078 266.8 464.328 271.66C465.302 273.779 466.195 275.934 467.008 278.12C468.888 283.12 472.698 286.8 477.788 288.47L495.218 294.11C495.758 294.28 496.008 294.63 496.008 295.21V321.87H495.988ZM194.558 392.37C180.368 392.37 168.818 403.93 168.818 418.14C168.818 432.33 180.368 443.88 194.558 443.88C208.748 443.88 220.298 432.33 220.298 418.14C220.288 403.93 208.748 392.37 194.558 392.37ZM194.558 427.89C189.178 427.89 184.808 423.52 184.808 418.14C184.808 412.75 189.178 408.36 194.558 408.36C199.938 408.36 204.308 412.75 204.308 418.14C204.308 423.51 199.928 427.89 194.558 427.89Z" fill="url(#paint0_linear_669_30)"/>
</mask>
<g mask="url(#mask0_669_30)">
<rect x="-98" y="-327" width="610" height="1506" fill="#E33533"/>
</g>
<defs>
<linearGradient id="paint0_linear_669_30" x1="255.988" y1="502.977" x2="255.988" y2="10.003" gradientUnits="userSpaceOnUse">
<stop stop-color="#0977BC"/>
<stop offset="0.509652" stop-color="#0977BC"/>
<stop offset="1" stop-color="#0977BC"/>
</linearGradient>
</defs>
</svg>
