<svg width="512" height="512" viewBox="0 0 512 512" fill="none" xmlns="http://www.w3.org/2000/svg">
<mask id="mask0_669_24" style="mask-type:alpha" maskUnits="userSpaceOnUse" x="49" y="8" width="415" height="496">
<path d="M266.74 360.865C267.935 370.706 265.299 379.686 259.116 386.835C251.802 395.292 239.615 400.95 225.754 402.509V413.123C225.754 415.245 224.911 417.28 223.411 418.78C221.911 420.28 219.876 421.123 217.754 421.123C215.633 421.123 213.598 420.28 212.097 418.78C210.597 417.28 209.754 415.245 209.754 413.123V402.394C189.262 399.639 173.324 386.72 168.72 368.255C168.466 367.236 168.415 366.176 168.57 365.137C168.726 364.098 169.084 363.1 169.625 362.199C170.166 361.299 170.879 360.514 171.724 359.889C172.569 359.264 173.528 358.811 174.547 358.557C175.567 358.303 176.626 358.252 177.665 358.407C178.704 358.562 179.703 358.921 180.603 359.462C181.504 360.003 182.289 360.716 182.914 361.561C183.539 362.405 183.991 363.365 184.245 364.384C188.362 380.896 204.495 386.806 217.712 386.939C217.782 386.938 217.853 386.94 217.923 386.941C218.367 386.939 218.807 386.939 219.243 386.928C230.804 386.653 241.705 382.508 247.014 376.368C250.254 372.622 251.511 368.181 250.857 362.793C249.313 350.077 238.74 342.783 216.575 339.145C181.597 333.402 173.454 315.689 172.783 301.841C171.851 282.65 185.293 266.565 206.232 261.816C207.398 261.552 208.573 261.329 209.754 261.147V250.304C209.754 248.182 210.597 246.147 212.097 244.647C213.598 243.147 215.633 242.304 217.754 242.304C219.876 242.304 221.911 243.147 223.411 244.647C224.911 246.147 225.754 248.182 225.754 250.304V261.078C240.769 263.252 255.607 271.914 263.005 289.536C263.809 291.489 263.808 293.681 263.002 295.633C262.197 297.585 260.652 299.139 258.704 299.957C256.757 300.775 254.566 300.789 252.608 299.997C250.65 299.205 249.085 297.671 248.253 295.73C242.506 282.044 230.21 276.488 218.345 276.468C218.013 276.492 217.681 276.496 217.348 276.48C214.768 276.542 212.219 276.865 209.771 277.42C199.177 279.822 188.095 287.296 188.764 301.066C188.973 305.379 189.61 318.504 219.167 323.357C230.023 325.139 263.061 330.562 266.74 360.865ZM459.797 411.106L384.95 499.259C382.355 502.316 378.718 503.999 374.708 503.999C370.699 503.999 367.061 502.315 364.466 499.26L334.519 463.989C303.664 489.903 263.893 504 221.331 504C220.29 504 219.251 503.991 218.207 503.975C217.187 503.991 216.167 503.999 215.146 503.999C153.462 504.002 97.4413 473.855 68.3753 424.809C42.0003 380.304 42.5773 327.205 69.9573 279.13C87.0953 249.039 113.342 214.967 152.063 172.608C141.065 167.606 133.395 156.522 133.395 143.673C133.395 126.407 147.241 112.323 164.412 111.917L139.121 86.627C126.475 73.981 126.475 53.405 139.121 40.76C149.824 30.056 166.844 28.228 179.592 36.41C180.961 37.288 182.301 37.408 183.805 36.786C185.306 36.164 186.169 35.133 186.516 33.542C189.746 18.744 203.073 8.002 218.206 8C233.339 8 246.668 18.741 249.9 33.54C250.247 35.132 251.109 36.164 252.613 36.787C254.114 37.409 255.453 37.288 256.823 36.41C269.57 28.229 286.589 30.056 297.293 40.759C309.939 53.406 309.939 73.983 297.294 86.628L272.004 111.918C289.174 112.325 303.02 126.409 303.02 143.675C303.02 156.523 295.35 167.607 284.352 172.609C300.665 190.457 314.718 206.792 326.812 221.966C327.71 212.388 335.788 204.865 345.595 204.865H403.822C414.229 204.866 422.696 213.333 422.695 223.739V388.977H449.555C454.853 388.977 459.526 391.964 461.749 396.772C463.972 401.574 463.225 407.068 459.797 411.106ZM150.434 75.313L187.02 111.897H249.397L285.981 75.313C292.388 68.905 292.388 58.48 285.981 52.073C280.558 46.65 271.93 45.725 265.466 49.874C259.715 53.564 252.798 54.182 246.489 51.567C240.179 48.953 235.725 43.626 234.268 36.952C232.629 29.448 225.874 24 218.207 24C210.54 24.001 203.786 29.449 202.148 36.953C200.691 43.627 196.237 48.954 189.926 51.568C183.614 54.18 176.698 53.563 170.95 49.875C164.485 45.725 155.857 46.65 150.433 52.073C144.026 58.48 144.026 68.906 150.434 75.313ZM149.395 143.673C149.395 152.372 156.472 159.449 165.171 159.449H271.243C279.942 159.449 287.019 152.372 287.019 143.674C287.019 134.975 279.942 127.898 271.243 127.898H165.171C156.472 127.897 149.395 134.974 149.395 143.673ZM324.165 451.794L289.62 411.107C286.191 407.066 285.445 401.572 287.669 396.766C289.892 391.961 294.564 388.974 299.862 388.974H326.722V248.054C310.836 226.681 290.668 202.877 265.21 175.45H171.2C129.245 220.649 101.446 256.171 83.8592 287.049C59.0432 330.622 58.4323 376.65 82.1383 416.653C108.781 461.611 160.881 488.933 218.071 487.976C218.161 487.974 218.251 487.974 218.341 487.976C258.227 488.659 295.489 475.849 324.165 451.794ZM372.759 488.897C372.758 488.9 372.756 488.902 372.753 488.904L372.759 488.897ZM444.015 404.975H414.695C412.574 404.975 410.539 404.132 409.038 402.632C407.538 401.132 406.695 399.097 406.695 396.975V223.736C406.695 222.178 405.38 220.863 403.822 220.863H345.595C344.038 220.863 342.722 222.179 342.722 223.737V396.974C342.722 399.096 341.879 401.131 340.379 402.631C338.879 404.131 336.844 404.974 334.722 404.974H305.402L374.709 486.602L444.015 404.975Z" fill="#0977BC"/>
</mask>
<g mask="url(#mask0_669_24)">
<rect x="-118" y="-171" width="748" height="1350" fill="#E33533"/>
</g>
</svg>
