<svg width="512" height="512" viewBox="0 0 512 512" fill="none" xmlns="http://www.w3.org/2000/svg">
<g clip-path="url(#clip0_668_9)">
<mask id="mask0_668_9" style="mask-type:alpha" maskUnits="userSpaceOnUse" x="120" y="0" width="272" height="513">
<path d="M368 400.023H360V392.023C360 385.658 357.471 379.553 352.971 375.052C348.47 370.551 342.365 368.023 336 368.023H329.112L334.192 329.055C334.427 326.97 333.834 324.876 332.54 323.224C331.246 321.572 329.355 320.495 327.275 320.224C325.194 319.953 323.09 320.511 321.417 321.777C319.743 323.042 318.634 324.915 318.328 326.991L312.976 368.023H198.864L153.312 71.9268C224.42 70.4658 294.337 53.3879 358.112 21.9028L322.496 294.991C322.222 297.096 322.796 299.223 324.091 300.905C325.385 302.586 327.295 303.685 329.4 303.959C331.505 304.232 333.632 303.659 335.314 302.364C336.996 301.069 338.094 299.16 338.368 297.055L375.968 9.05476C376.16 7.6107 375.954 6.14161 375.373 4.80598C374.791 3.47034 373.856 2.31888 372.668 1.47581C371.48 0.632738 370.084 0.130069 368.631 0.0220327C367.178 -0.0860035 365.724 0.204695 364.424 0.862764L352.6 6.78276C287.8 39.0796 216.402 55.9331 144 56.0228C142.847 56.0232 141.707 56.2729 140.66 56.7548C139.612 57.2367 138.681 57.9394 137.93 58.8147C137.18 59.69 136.627 60.7173 136.311 61.8261C135.994 62.9349 135.921 64.099 136.096 65.2388L182.672 368.023H176C169.635 368.023 163.53 370.551 159.029 375.052C154.529 379.553 152 385.658 152 392.023V400.023H144C137.635 400.023 131.53 402.551 127.029 407.052C122.529 411.553 120 417.658 120 424.023V504.023C120 506.144 120.843 508.179 122.343 509.68C123.843 511.18 125.878 512.023 128 512.023H384C386.122 512.023 388.157 511.18 389.657 509.68C391.157 508.179 392 506.144 392 504.023V424.023C392 417.658 389.471 411.553 384.971 407.052C380.47 402.551 374.365 400.023 368 400.023ZM376 496.023H136V424.023C136 421.901 136.843 419.866 138.343 418.366C139.843 416.866 141.878 416.023 144 416.023H192C194.122 416.023 196.157 415.18 197.657 413.68C199.157 412.179 200 410.144 200 408.023C200 405.901 199.157 403.866 197.657 402.366C196.157 400.866 194.122 400.023 192 400.023H168V392.023C168 389.901 168.843 387.866 170.343 386.366C171.843 384.866 173.878 384.023 176 384.023H336C338.122 384.023 340.157 384.866 341.657 386.366C343.157 387.866 344 389.901 344 392.023V400.023H224C221.878 400.023 219.843 400.866 218.343 402.366C216.843 403.866 216 405.901 216 408.023C216 410.144 216.843 412.179 218.343 413.68C219.843 415.18 221.878 416.023 224 416.023H368C370.122 416.023 372.157 416.866 373.657 418.366C375.157 419.866 376 421.901 376 424.023V496.023Z" fill="#0977BC"/>
<path d="M304 448.023H208C205.879 448.023 203.844 448.865 202.344 450.366C200.843 451.866 200 453.901 200 456.023C200 458.144 200.843 460.179 202.344 461.679C203.844 463.18 205.879 464.023 208 464.023H304C306.122 464.023 308.157 463.18 309.657 461.679C311.158 460.179 312 458.144 312 456.023C312 453.901 311.158 451.866 309.657 450.366C308.157 448.865 306.122 448.023 304 448.023ZM314.08 130.223C313.619 128.804 312.769 127.543 311.629 126.582C310.488 125.62 309.101 124.997 307.624 124.783L276.912 120.311L263.201 92.4866C262.467 91.2372 261.42 90.2012 260.162 89.4813C258.905 88.7615 257.481 88.3828 256.033 88.3828C254.584 88.3828 253.16 88.7615 251.903 89.4813C250.645 90.2012 249.598 91.2372 248.864 92.4866L235.12 120.311L204.408 124.783C202.933 125 201.548 125.624 200.409 126.587C199.27 127.549 198.423 128.811 197.963 130.229C197.502 131.648 197.448 133.167 197.805 134.614C198.163 136.062 198.917 137.381 199.984 138.423L222.2 160.087L216.952 190.671C216.7 192.142 216.865 193.654 217.428 195.037C217.99 196.419 218.928 197.617 220.136 198.494C221.344 199.371 222.773 199.893 224.261 200.001C225.75 200.108 227.239 199.797 228.56 199.103L256 184.663L283.472 199.103C284.794 199.797 286.283 200.108 287.772 200.001C289.26 199.893 290.689 199.371 291.897 198.494C293.105 197.617 294.043 196.419 294.605 195.037C295.168 193.654 295.333 192.142 295.08 190.671L289.832 160.087L312.049 138.423C313.119 137.382 313.876 136.062 314.235 134.613C314.594 133.164 314.541 131.643 314.08 130.223ZM275.68 151.559C274.75 152.463 274.053 153.58 273.65 154.813C273.248 156.047 273.151 157.359 273.369 158.639L276.568 177.399L259.72 168.543C258.573 167.94 257.297 167.625 256 167.625C254.704 167.625 253.428 167.94 252.28 168.543L235.433 177.399L238.632 158.639C238.85 157.359 238.753 156.047 238.351 154.813C237.948 153.58 237.251 152.463 236.321 151.559L222.72 138.279L241.552 135.535C242.835 135.349 244.054 134.854 245.103 134.094C246.153 133.333 247.001 132.328 247.576 131.167L256 114.103L264.425 131.167C265 132.328 265.848 133.333 266.898 134.094C267.947 134.854 269.166 135.349 270.448 135.535L289.28 138.279L275.68 151.559ZM304 248.023C304 245.901 303.158 243.866 301.657 242.366C300.157 240.865 298.122 240.023 296 240.023H216C213.879 240.023 211.844 240.865 210.344 242.366C208.843 243.866 208 245.901 208 248.023C208 250.144 208.843 252.179 210.344 253.679C211.844 255.18 213.879 256.023 216 256.023H296C298.122 256.023 300.157 255.18 301.657 253.679C303.158 252.179 304 250.144 304 248.023ZM232 272.023C229.879 272.023 227.844 272.865 226.344 274.366C224.843 275.866 224 277.901 224 280.023C224 282.144 224.843 284.179 226.344 285.679C227.844 287.18 229.879 288.023 232 288.023H280C282.122 288.023 284.157 287.18 285.657 285.679C287.158 284.179 288 282.144 288 280.023C288 277.901 287.158 275.866 285.657 274.366C284.157 272.865 282.122 272.023 280 272.023H232Z" fill="#0977BC"/>
</mask>
<g mask="url(#mask0_668_9)">
<rect x="-32" y="-148" width="572" height="859" fill="#E33533"/>
</g>
</g>
<defs>
<clipPath id="clip0_668_9">
<rect width="512" height="512" fill="white"/>
</clipPath>
</defs>
</svg>
