<svg width="512" height="512" viewBox="0 0 512 512" fill="none" xmlns="http://www.w3.org/2000/svg">
<mask id="mask0_664_106" style="mask-type:alpha" maskUnits="userSpaceOnUse" x="33" y="0" width="446" height="512">
<path d="M175.417 101.861C159.799 107.76 148.61 122.739 148.61 140.392C148.61 147.191 150.421 153.517 153.344 159.182C140.958 163.944 132.095 175.888 132.095 189.94C132.095 203.996 140.958 215.935 153.344 220.701C150.421 226.367 148.611 232.693 148.611 239.487C148.611 257.144 159.8 272.124 175.417 278.019C174.178 281.478 173.383 285.156 173.383 289.035C173.383 307.252 188.198 322.066 206.415 322.066C210.528 322.066 214.428 321.216 218.061 319.844C223.412 330.889 234.633 338.582 247.706 338.582C265.922 338.582 280.737 323.768 280.737 305.551V74.329C280.737 56.1152 265.922 41.2974 247.706 41.2974C234.633 41.2974 223.412 48.9948 218.061 60.0346C214.427 58.6638 210.528 57.8132 206.416 57.8132C188.198 57.8132 173.384 72.631 173.384 90.8449C173.384 94.7281 174.179 98.4008 175.417 101.861ZM206.415 74.329C215.524 74.329 222.931 81.7364 222.931 90.8449H239.447C239.447 82.909 236.516 75.7081 231.835 70.0101C233.75 63.0105 240.101 57.8132 247.706 57.8132C256.814 57.8132 264.221 65.2205 264.221 74.329V305.551C264.221 314.659 256.814 322.066 247.706 322.066C240.101 322.066 233.75 316.873 231.835 309.868C236.516 304.171 239.448 296.974 239.448 289.035H222.932C222.932 298.143 215.524 305.551 206.416 305.551C197.307 305.551 189.9 298.143 189.9 289.035C189.9 279.926 197.307 272.519 206.416 272.519V256.003C198.372 256.003 191.089 259.011 185.359 263.802C173.864 261.66 165.126 251.595 165.126 239.487C165.126 225.831 176.244 214.714 189.9 214.714C203.561 214.714 214.674 225.831 214.674 239.487H231.19C231.19 216.721 212.67 198.198 189.9 198.198C180.569 198.198 172.045 201.428 165.126 206.672V206.456C156.018 206.456 148.611 199.048 148.611 189.94C148.611 180.831 156.018 173.424 165.126 173.424V173.21C172.045 178.456 180.569 181.682 189.9 181.682C212.67 181.682 231.19 163.161 231.19 140.392H214.674C214.674 154.053 203.561 165.166 189.9 165.166C176.244 165.166 165.126 154.053 165.126 140.392C165.126 128.287 173.864 118.223 185.359 116.082C191.089 120.872 198.372 123.875 206.416 123.875V107.36C197.307 107.36 189.9 99.9533 189.9 90.8438C189.9 81.7364 197.307 74.328 206.416 74.328L206.415 74.329ZM371.574 57.8132C367.462 57.8132 363.566 58.6638 359.934 60.0346C354.578 48.9948 343.357 41.2974 330.285 41.2974C312.067 41.2974 297.253 56.1152 297.253 74.329V305.551C297.253 323.768 312.067 338.582 330.285 338.582C343.357 338.582 354.578 330.889 359.934 319.844C363.567 321.216 367.462 322.066 371.574 322.066C389.791 322.066 404.606 307.252 404.606 289.035C404.606 285.156 403.815 281.479 402.573 278.019C418.191 272.124 429.38 257.144 429.38 239.487C429.38 232.693 427.573 226.367 424.65 220.701C437.037 215.935 445.895 203.996 445.895 189.94C445.895 175.888 437.037 163.944 424.65 159.182C427.573 153.517 429.38 147.191 429.38 140.392C429.38 122.739 418.19 107.76 402.573 101.861C403.815 98.4008 404.606 94.7281 404.606 90.8449C404.606 72.631 389.791 57.8132 371.574 57.8132ZM412.864 140.392C412.864 154.053 401.751 165.166 388.09 165.166C374.434 165.166 363.316 154.053 363.316 140.392H346.801C346.801 163.161 365.324 181.682 388.09 181.682C397.421 181.682 405.945 178.456 412.864 173.21V173.424C421.972 173.424 429.38 180.831 429.38 189.94C429.38 199.048 421.972 206.456 412.864 206.456V206.672C405.945 201.428 397.421 198.198 388.09 198.198C365.324 198.198 346.801 216.721 346.801 239.487H363.316C363.316 225.831 374.434 214.714 388.09 214.714C401.751 214.714 412.864 225.831 412.864 239.487C412.864 251.595 404.126 261.66 392.634 263.801C386.901 259.011 379.617 256.003 371.574 256.003V272.519C380.683 272.519 388.09 279.926 388.09 289.035C388.09 298.143 380.683 305.551 371.574 305.551C362.466 305.551 355.058 298.143 355.058 289.035H338.543C338.543 296.974 341.474 304.172 346.155 309.868C344.24 316.873 337.889 322.066 330.285 322.066C321.176 322.066 313.769 314.659 313.769 305.551V74.329C313.769 65.2205 321.176 57.8132 330.285 57.8132C337.889 57.8132 344.241 63.0105 346.155 70.0101C341.474 75.7081 338.543 82.909 338.543 90.8449H355.058C355.058 81.7364 362.466 74.329 371.574 74.329C380.683 74.329 388.09 81.7364 388.09 90.8449C388.09 99.9533 380.683 107.361 371.574 107.361V123.877C379.618 123.877 386.901 120.873 392.634 116.082C404.126 118.223 412.864 128.288 412.864 140.392Z" fill="#0977BC"/>
<path d="M419.033 51.5062C380.446 15.2374 329.906 -2.94751 276.867 0.389721L277.891 16.8705C326.354 13.8584 372.482 30.43 407.727 63.538C442.988 96.6749 462.412 141.573 462.412 189.94C462.412 248.225 433.359 302.272 384.694 334.521C367.91 345.65 355.207 361.525 347.381 379.872H230.267C222.332 361.392 209.582 345.405 192.768 334.175C142.616 300.656 113.798 244.676 115.673 184.407L99.1655 183.895C97.1083 249.894 128.677 311.207 183.595 347.9C195.724 356.01 205.409 367.048 212.159 379.872H189.901V396.388H218.747C220.348 401.738 221.63 407.222 222.28 412.904H206.417V429.419H222.933V454.193C222.933 458.762 226.635 462.451 231.191 462.451H239.449C239.449 489.776 261.67 511.998 288.996 511.998C316.323 511.998 338.544 489.776 338.544 462.451H346.802C351.362 462.451 355.06 458.762 355.06 454.193V429.419H371.576V412.904H355.64C356.225 407.23 357.391 401.731 358.958 396.388H388.091V379.872H365.475C372.128 367.191 381.757 356.287 393.825 348.296C447.11 312.958 478.928 253.765 478.928 189.94C478.928 137.735 457.093 87.2723 419.033 51.5062ZM288.995 495.483C270.777 495.483 255.964 480.668 255.964 462.451H322.027C322.027 480.668 307.212 495.483 288.995 495.483ZM338.543 445.935H239.448V429.419H338.543V445.935ZM339.131 412.904H238.787C238.234 407.283 237.342 401.758 235.988 396.388H341.699C340.385 401.75 339.624 407.298 339.131 412.904ZM90.8054 57.8132C109.022 57.8132 123.837 72.631 123.837 90.8449C123.837 95.4136 127.539 99.1028 132.095 99.1028C136.655 99.1028 140.353 95.4136 140.353 90.8449C140.353 72.631 155.167 57.8132 173.385 57.8132C177.945 57.8132 181.642 54.124 181.642 49.5553C181.642 44.9907 177.945 41.2974 173.385 41.2974C155.167 41.2974 140.353 26.4827 140.353 8.26571C140.353 6.07557 139.483 3.97514 137.934 2.42648C136.386 0.87782 134.285 0.00779198 132.095 0.00779198C129.905 0.00779198 127.804 0.87782 126.256 2.42648C124.707 3.97514 123.837 6.07557 123.837 8.26571C123.837 26.4827 109.022 41.2974 90.8054 41.2974C88.6153 41.2974 86.5148 42.1674 84.9662 43.7161C83.4175 45.2647 82.5475 47.3651 82.5475 49.5553C82.5475 54.124 86.2491 57.8132 90.8054 57.8132ZM132.095 35.6242C135.768 41.1463 140.504 45.882 146.026 49.5553C140.505 53.2297 135.769 57.9652 132.095 63.4864C128.422 57.9643 123.686 53.2286 118.164 49.5553C123.687 45.883 128.423 41.1471 132.095 35.6242ZM123.837 140.392C128.397 140.392 132.095 136.703 132.095 132.134C132.095 127.57 128.397 123.877 123.837 123.877C105.619 123.877 90.8054 109.062 90.8054 90.8449C90.8054 88.6547 89.9354 86.5543 88.3867 85.0056C86.8381 83.457 84.7376 82.5869 82.5475 82.5869C80.3574 82.5869 78.2569 83.457 76.7083 85.0056C75.1596 86.5543 74.2896 88.6547 74.2896 90.8449C74.2896 109.062 59.4749 123.877 41.2579 123.877C39.0678 123.877 36.9673 124.747 35.4187 126.295C33.87 127.844 33 129.944 33 132.134C33 136.703 36.7016 140.392 41.2579 140.392C59.4749 140.392 74.2896 155.21 74.2896 173.424C74.2896 177.993 77.9912 181.682 82.5475 181.682C87.1079 181.682 90.8054 177.993 90.8054 173.424C90.8054 155.21 105.619 140.392 123.837 140.392ZM82.5475 146.066C78.8742 140.543 74.1385 135.808 68.6164 132.134C74.1375 128.46 78.873 123.724 82.5475 118.203C86.223 123.724 90.9583 128.459 96.4786 132.134C90.9574 135.809 86.2219 140.544 82.5475 146.066Z" fill="#0977BC"/>
</mask>
<g mask="url(#mask0_664_106)">
<rect x="-30" y="-115" width="655" height="847" fill="#E33533"/>
</g>
</svg>
