<svg width="512" height="512" viewBox="0 0 512 512" fill="none" xmlns="http://www.w3.org/2000/svg">
<mask id="mask0_663_21" style="mask-type:alpha" maskUnits="userSpaceOnUse" x="8" y="27" width="496" height="459">
<path fill-rule="evenodd" clip-rule="evenodd" d="M146.195 346.506L156.188 377.262C157.224 380.45 157.224 383.883 156.188 387.07C155.153 390.258 153.135 393.036 150.423 395.006C147.712 396.975 144.447 398.036 141.095 398.036C137.744 398.036 134.478 396.975 131.767 395.006L96.3205 369.252L60.874 395.006C58.1627 396.976 54.8971 398.037 51.5455 398.037C48.1938 398.038 44.9281 396.977 42.2166 395.007C39.505 393.037 37.4867 390.259 36.4511 387.071C35.4155 383.883 35.4156 380.45 36.4516 377.262L49.9915 335.592L14.544 309.839C11.832 307.869 9.81322 305.092 8.77716 301.904C7.74109 298.716 7.74094 295.282 8.77673 292.095C9.81251 288.907 11.831 286.129 14.5429 284.159C17.2548 282.19 20.5207 281.129 23.8725 281.13H67.6876L81.2265 239.459C82.262 236.271 84.2801 233.494 86.9915 231.524C89.7029 229.553 92.9684 228.492 96.32 228.492C99.6715 228.492 102.937 229.553 105.648 231.524C108.36 233.494 110.378 236.271 111.413 239.459L118.555 261.44C141.069 228.416 175.082 203.864 214.829 193.553C187.202 178.516 168.385 149.197 168.385 115.632C168.385 66.8266 208.169 27 256.974 27C305.825 27 345.606 66.8286 345.606 115.632C345.606 149.198 326.789 178.518 299.145 193.555C338.031 203.641 371.421 227.347 393.923 259.277L400.362 239.459C401.398 236.271 403.416 233.494 406.127 231.524C408.839 229.553 412.104 228.492 415.456 228.492C418.807 228.492 422.073 229.553 424.784 231.524C427.495 233.494 429.514 236.271 430.549 239.459L444.088 281.13H487.903C491.255 281.129 494.521 282.19 497.233 284.159C499.945 286.129 501.963 288.907 502.999 292.095C504.035 295.282 504.034 298.716 502.998 301.904C501.962 305.092 499.944 307.869 497.232 309.839L461.784 335.592L475.324 377.262C476.36 380.45 476.36 383.883 475.324 387.07C474.288 390.258 472.27 393.036 469.559 395.006C466.848 396.975 463.582 398.036 460.231 398.036C456.879 398.036 453.614 396.975 450.903 395.006L415.455 369.252L380.009 395.006C377.297 396.975 374.032 398.036 370.68 398.036C367.329 398.036 364.064 396.975 361.352 395.006C358.641 393.036 356.623 390.258 355.587 387.07C354.552 383.883 354.552 380.45 355.587 377.262L365.58 346.506H278.746L285.921 368.589H329.736C333.088 368.589 336.354 369.65 339.065 371.62C341.777 373.59 343.796 376.368 344.831 379.555C345.867 382.743 345.867 386.177 344.831 389.364C343.795 392.552 341.777 395.33 339.065 397.3L303.617 423.053L317.157 464.723C318.193 467.91 318.193 471.344 317.158 474.532C316.122 477.719 314.104 480.497 311.392 482.467C308.681 484.437 305.415 485.498 302.063 485.498C298.712 485.498 295.446 484.437 292.735 482.466L257.288 456.713L221.842 482.466C219.131 484.437 215.865 485.498 212.513 485.499C209.161 485.499 205.896 484.438 203.184 482.468C200.472 480.498 198.454 477.72 197.419 474.532C196.383 471.344 196.384 467.91 197.42 464.723L210.959 423.053L175.513 397.3C172.802 395.329 170.785 392.551 169.75 389.364C168.715 386.177 168.715 382.744 169.75 379.557C170.786 376.37 172.804 373.592 175.515 371.622C178.225 369.652 181.49 368.59 184.841 368.589H228.655L235.831 346.506H146.195ZM125.2 281.13H168.767C172.119 281.129 175.385 282.19 178.097 284.159C180.809 286.129 182.827 288.907 183.863 292.095C184.899 295.282 184.899 298.716 183.863 301.904C182.827 305.092 180.808 307.869 178.096 309.839L149.736 330.443H241.05L242.195 326.92C243.231 323.732 245.249 320.954 247.96 318.984C250.672 317.014 253.937 315.953 257.289 315.953C260.64 315.953 263.906 317.014 266.617 318.984C269.329 320.954 271.347 323.732 272.382 326.92L273.527 330.443H362.039L333.68 309.839C330.968 307.869 328.949 305.092 327.913 301.904C326.877 298.716 326.877 295.282 327.912 292.095C328.948 288.907 330.967 286.129 333.679 284.159C336.39 282.19 339.656 281.129 343.008 281.13H386.822L387.525 278.966C361.221 234.266 312.61 204.264 256.974 204.264C200.475 204.264 151.208 235.236 125.2 281.13ZM256.974 188.202C296.972 188.202 329.544 155.591 329.544 115.632C329.544 75.6731 296.972 43.0627 256.974 43.0627C217.017 43.0627 184.448 75.6741 184.448 115.632C184.448 155.59 217.017 188.202 256.974 188.202ZM24.4648 297.192L59.5458 322.68C62.2571 324.65 64.2753 327.428 65.311 330.615C66.3467 333.802 66.3468 337.236 65.3113 340.423L51.911 381.662L86.992 356.175C89.7034 354.205 92.9687 353.144 96.32 353.144C99.6712 353.144 102.937 354.205 105.648 356.175L140.729 381.662L127.33 340.423C126.294 337.236 126.294 333.803 127.329 330.615C128.365 327.428 130.383 324.65 133.094 322.68L168.175 297.192H124.813C121.461 297.192 118.196 296.131 115.485 294.161C112.773 292.191 110.755 289.413 109.72 286.226L96.3205 244.987L82.9201 286.226C81.8846 289.413 79.8666 292.191 77.1553 294.161C74.444 296.131 71.1786 297.192 67.8272 297.192H24.4648ZM185.434 384.652L220.515 410.14C223.226 412.11 225.244 414.887 226.279 418.075C227.315 421.262 227.315 424.696 226.279 427.883L212.88 469.123L247.96 443.636C250.671 441.666 253.937 440.605 257.288 440.605C260.64 440.605 263.905 441.666 266.617 443.636L301.698 469.123L288.297 427.883C287.262 424.695 287.262 421.262 288.298 418.075C289.334 414.887 291.352 412.11 294.063 410.14L329.144 384.652H285.782C282.43 384.652 279.165 383.591 276.453 381.621C273.742 379.651 271.724 376.874 270.689 373.686L257.288 332.447L243.889 373.686C242.853 376.874 240.835 379.651 238.124 381.621C235.413 383.591 232.147 384.652 228.796 384.652H185.434ZM343.6 297.192L378.681 322.68C381.393 324.65 383.411 327.428 384.446 330.615C385.482 333.803 385.482 337.236 384.446 340.423L371.047 381.662L406.128 356.175C408.839 354.205 412.104 353.144 415.456 353.144C418.807 353.144 422.072 354.205 424.784 356.175L459.865 381.662L446.464 340.423C445.429 337.236 445.429 333.802 446.465 330.615C447.5 327.428 449.518 324.65 452.23 322.68L487.311 297.192H443.948C440.597 297.192 437.332 296.131 434.62 294.161C431.909 292.191 429.891 289.413 428.855 286.226L415.455 244.987L402.056 286.226C401.02 289.413 399.002 292.191 396.291 294.161C393.58 296.131 390.314 297.192 386.963 297.192H343.6Z" fill="#0977BC"/>
</mask>
<g mask="url(#mask0_663_21)">
<rect x="-300" y="-177" width="1153" height="921" fill="#E33533"/>
</g>
</svg>
